<svg width="44" height="38" viewBox="0 0 44 38" fill="none" xmlns="http://www.w3.org/2000/svg">
<path d="M21.9 2.5L2.9 3.4C1.8 3.5 1 4.3 1 5.4V32.4C1 33.6 2 34.5 3.1 34.4L16.5 33.6C16.9 33.6 17.3 33.8 17.4 34.1C17.7 34.8 18.4 35 19.3 35H24.3C25.2 35 25.9 34.7 26.2 34.1C26.3 33.7 26.8 33.5 27.1 33.6L40.5 34.4C41.7 34.5 42.6 33.6 42.6 32.4V5.4C42.6 4.3 41.8 3.5 40.7 3.4L21.9 2.5Z" fill="#00B8F0"/>
<path d="M40.9 3.4L21.9 2.5L2.9 3.4C1.8 3.5 1 4.3 1 5.4V8.9C1 7.8 1.8 7 2.9 6.9L21.9 6L40.9 6.9C42 7 42.8 7.8 42.8 8.9V5.4C42.8 4.4 42 3.5 40.9 3.4Z" fill="#4ACFFF"/>
<path d="M21.9 2.5L2.9 3.4C1.8 3.5 1 4.3 1 5.4V32.4C1 33.6 2 34.5 3.1 34.4L16.5 33.6C16.9 33.6 17.3 33.8 17.4 34.1C17.7 34.8 18.4 35 19.3 35H24.3C25.2 35 25.9 34.7 26.2 34.1C26.3 33.7 26.8 33.5 27.1 33.6L40.5 34.4C41.7 34.5 42.6 33.6 42.6 32.4V5.4C42.6 4.3 41.8 3.5 40.7 3.4L21.9 2.5Z" stroke="#45413C" stroke-miterlimit="10" stroke-linecap="round" stroke-linejoin="round"/>
<path d="M23.4 32.5H20.5C19.7 32.5 19 31.8 19 31V29H25V31C24.9 31.8 24.2 32.5 23.4 32.5Z" fill="#627B8C" stroke="#45413C" stroke-miterlimit="10" stroke-linecap="round" stroke-linejoin="round"/>
<path opacity="0.15" d="M21.8 38C31.1888 38 38.8 37.3284 38.8 36.5C38.8 35.6716 31.1888 35 21.8 35C12.4112 35 4.8 35.6716 4.8 36.5C4.8 37.3284 12.4112 38 21.8 38Z" fill="#45413C"/>
<path d="M6.5 2.5L4.3 5.2C4.1 5.5 4 5.9 4 6.3V31.9L6.5 28.2V2.5Z" fill="#FFFEF2"/>
<path d="M37.3 2.5L39.5 5.2C39.7 5.5 39.8 5.9 39.8 6.3V31.9L37.3 28.2V2.5Z" fill="#FFFEF2"/>
<path d="M4.3 5.3C4.1 5.6 4 6 4 6.4V9.9C4 9.5 4.1 9.1 4.3 8.8L6.5 6.1V2.5L4.3 5.3Z" fill="white"/>
<path d="M39.5 5.3L37.3 2.6V6.1L39.5 8.8C39.7 9.1 39.8 9.5 39.8 9.9V6.4C39.8 6 39.7 5.6 39.5 5.3Z" fill="white"/>
<path d="M6.5 2.5L4.3 5.2C4.1 5.5 4 5.9 4 6.3V31.9L6.5 28.2V2.5Z" stroke="#45413C" stroke-miterlimit="10" stroke-linecap="round" stroke-linejoin="round"/>
<path d="M37.3 2.5L39.5 5.2C39.7 5.5 39.8 5.9 39.8 6.3V31.9L37.3 28.2V2.5Z" stroke="#45413C" stroke-miterlimit="10" stroke-linecap="round" stroke-linejoin="round"/>
<path d="M21.9 30V4C21.9 2.3 20.6 1 18.9 1L7.4 2C6.9 2 6.5 2.5 6.5 2.5V31.5L19.1 31.1C19.6 30.5 20.6 30 21.9 30Z" fill="#FFFEF2"/>
<path d="M24.9 1C23.2 1 21.9 2.3 21.9 4V30C23.2 30 24.2 30.5 24.7 31.1L37.3 31.5V2.5C37.3 2.5 36.9 2 36.4 1.9L24.9 1Z" fill="#FFFEF2"/>
<path d="M18.9 1L7.4 2C6.9 2 6.5 2.5 6.5 2.5V5.4C6.5 4.9 6.9 4.4 7.4 4.4L18.9 3.5C20.6 3.5 21.9 4.8 21.9 6.5V4C21.9 2.4 20.6 1 18.9 1Z" fill="white"/>
<path d="M36.4 2L24.9 1C23.2 1 21.9 2.3 21.9 4V6.5C21.9 4.8 23.2 3.5 24.9 3.5L36.4 4.4C36.9 4.4 37.3 4.9 37.3 5.4V2.5C37.3 2.5 36.9 2 36.4 2Z" fill="white"/>
<path d="M21.9 30V4C21.9 2.3 20.6 1 18.9 1L7.4 2C6.9 2 6.5 2.5 6.5 2.5V31.5L19.1 31.1C19.6 30.5 20.6 30 21.9 30Z" stroke="#45413C" stroke-miterlimit="10" stroke-linecap="round" stroke-linejoin="round"/>
<path d="M24.9 1C23.2 1 21.9 2.3 21.9 4V30C23.2 30 24.2 30.5 24.7 31.1L37.3 31.5V2.5C37.3 2.5 36.9 2 36.4 1.9L24.9 1Z" stroke="#45413C" stroke-miterlimit="10" stroke-linecap="round" stroke-linejoin="round"/>
<path d="M21.9 30C21.7 28.6 20.4 27.5 18.9 27.5L6.5 28.4L4 32.1L19.1 31.2C19.5 30.5 20.6 30.1 21.9 30Z" fill="#FFFCE5" stroke="#45413C" stroke-miterlimit="10" stroke-linecap="round" stroke-linejoin="round"/>
<path d="M24.7 31.2L39.8 32L37.3 28.3L24.9 27.5C23.4 27.5 22.2 28.6 21.9 30C23.2 30.1 24.3 30.5 24.7 31.2Z" fill="#FFFCE5" stroke="#45413C" stroke-miterlimit="10" stroke-linecap="round" stroke-linejoin="round"/>
<path d="M25.9 4.5L34.9 5.4" stroke="#45413C" stroke-miterlimit="10" stroke-linecap="round" stroke-linejoin="round"/>
<path d="M25.9 8.4L34.9 9.2" stroke="#45413C" stroke-miterlimit="10" stroke-linecap="round" stroke-linejoin="round"/>
<path d="M25.9 12.2L34.9 13" stroke="#45413C" stroke-miterlimit="10" stroke-linecap="round" stroke-linejoin="round"/>
<path d="M25.9 16L34.9 16.9" stroke="#45413C" stroke-miterlimit="10" stroke-linecap="round" stroke-linejoin="round"/>
<path d="M25.9 19.8L34.9 20.7" stroke="#45413C" stroke-miterlimit="10" stroke-linecap="round" stroke-linejoin="round"/>
<path d="M25.9 23.7L34.9 24.5" stroke="#45413C" stroke-miterlimit="10" stroke-linecap="round" stroke-linejoin="round"/>
<path d="M18.4 4.5L9.4 5.4" stroke="#45413C" stroke-miterlimit="10" stroke-linecap="round" stroke-linejoin="round"/>
<path d="M18.4 8.4L9.4 9.2" stroke="#45413C" stroke-miterlimit="10" stroke-linecap="round" stroke-linejoin="round"/>
<path d="M18.4 12.2L9.4 13" stroke="#45413C" stroke-miterlimit="10" stroke-linecap="round" stroke-linejoin="round"/>
<path d="M18.4 16L9.4 16.9" stroke="#45413C" stroke-miterlimit="10" stroke-linecap="round" stroke-linejoin="round"/>
<path d="M18.4 19.8L9.4 20.7" stroke="#45413C" stroke-miterlimit="10" stroke-linecap="round" stroke-linejoin="round"/>
<path d="M18.4 23.7L9.4 24.5" stroke="#45413C" stroke-miterlimit="10" stroke-linecap="round" stroke-linejoin="round"/>
</svg>
